<?xml version="1.0" encoding="UTF-8"?>
<!-- Generator: Adobe Illustrator 14.0.0, SVG Export Plug-In . SVG Version: 6.00 Build 43363)  -->
<!DOCTYPE svg PUBLIC "-//W3C//DTD SVG 1.1//EN" "http://www.w3.org/Graphics/SVG/1.1/DTD/svg11.dtd">
<svg version="1.1" id="Layer_1" xmlns="http://www.w3.org/2000/svg" xmlns:xlink="http://www.w3.org/1999/xlink" x="0px" y="0px" width="412.5px" height="143.25px" viewBox="0 0 412.5 143.25" enable-background="new 0 0 412.5 143.25" xml:space="preserve">
<rect x="240.83" y="63.72" fill-rule="evenodd" clip-rule="evenodd" fill="#DCDDDE" width="9" height="11.25"/>
<rect x="209.33" y="108.72" fill-rule="evenodd" clip-rule="evenodd" fill="#DCDDDE" width="9" height="11.25"/>
<rect x="209.33" y="2.97" fill-rule="evenodd" clip-rule="evenodd" fill="#DCDDDE" width="9" height="11.25"/>
<rect x="65.332" y="2.97" fill-rule="evenodd" clip-rule="evenodd" fill="#DCDDDE" width="9" height="11.25"/>
<rect x="348.83" y="43.47" fill-rule="evenodd" clip-rule="evenodd" fill="#C3D6EF" width="27" height="31.5"/>
<rect x="303.83" y="38.97" fill-rule="evenodd" clip-rule="evenodd" fill="#C3D6EF" width="27" height="36"/>
<rect x="204.83" y="38.97" fill-rule="evenodd" clip-rule="evenodd" fill="#ADC8E8" width="27" height="36"/>
<rect x="132.83" y="47.97" fill-rule="evenodd" clip-rule="evenodd" fill="#94B5DF" width="27" height="27"/>
<rect x="60.832" y="43.47" fill-rule="evenodd" clip-rule="evenodd" fill="#7E96BB" width="27" height="31.5"/>
<rect x="6.832" y="74.97" fill-rule="evenodd" clip-rule="evenodd" fill="#7E96BB" width="27" height="27"/>
<polyline fill="none" stroke="#000000" stroke-width="0.72" stroke-linecap="round" stroke-linejoin="round" stroke-miterlimit="10" points="  60.832,38.97 60.832,74.97 87.832,74.97 87.832,38.97 "/>
<polyline fill="none" stroke="#000000" stroke-width="0.72" stroke-linecap="round" stroke-linejoin="round" stroke-miterlimit="10" points="  132.83,38.41 132.83,74.407 159.83,74.407 159.83,38.41 "/>
<circle fill-rule="evenodd" clip-rule="evenodd" fill="#968C63" cx="96.831" cy="70.47" r="4.499"/>
<rect x="96.832" y="65.97" fill-rule="evenodd" clip-rule="evenodd" fill="#968C63" width="9" height="4.5"/>
<line fill="none" stroke="#000000" stroke-width="0.72" stroke-linecap="round" stroke-linejoin="round" stroke-miterlimit="10" x1="87.832" y1="70.47" x2="92.332" y2="70.47"/>
<line fill="none" stroke="#000000" stroke-width="0.72" stroke-linecap="round" stroke-linejoin="round" stroke-miterlimit="10" x1="105.83" y1="68.22" x2="117.08" y2="68.22"/>
<rect x="117.08" y="62.595" fill-rule="evenodd" clip-rule="evenodd" fill="#56776B" width="4.5" height="11.25"/>
<line fill="none" stroke="#000000" stroke-width="0.72" stroke-linecap="round" stroke-linejoin="round" stroke-miterlimit="10" x1="121.58" y1="68.22" x2="132.83" y2="68.22"/>
<polyline fill="none" stroke="#000000" stroke-width="0.72" stroke-linecap="round" stroke-linejoin="round" stroke-miterlimit="10" points="  129.59,71.46 132.83,68.22 129.59,64.98 "/>
<polyline fill="none" stroke="#000000" stroke-width="0.72" stroke-linecap="round" stroke-linejoin="round" stroke-miterlimit="10" points="  303.83,38.97 303.83,74.97 330.83,74.97 330.83,38.97 "/>
<line fill="none" stroke="#000000" stroke-width="0.72" stroke-linecap="round" stroke-linejoin="round" stroke-miterlimit="10" stroke-dasharray="5.04,3.6" x1="317.33" y1="38.97" x2="317.33" y2="74.97"/>
<polyline fill="none" stroke="#000000" stroke-width="0.72" stroke-linecap="round" stroke-linejoin="round" stroke-miterlimit="10" points="  204.83,38.97 204.83,74.97 231.83,74.97 231.83,38.97 "/>
<line fill="none" stroke="#000000" stroke-width="0.72" stroke-linecap="round" stroke-linejoin="round" stroke-miterlimit="10" stroke-dasharray="5.04,3.6" x1="218.33" y1="38.97" x2="218.33" y2="74.97"/>
<path fill-rule="evenodd" clip-rule="evenodd" fill="#968C63" d="M290.33,70.47c0-2.485-2.01-4.5-4.5-4.5c-2.48,0-4.5,2.015-4.5,4.5  c0,2.485,2.02,4.5,4.5,4.5C288.32,74.97,290.33,72.955,290.33,70.47z"/>
<rect x="285.83" y="65.97" fill-rule="evenodd" clip-rule="evenodd" fill="#968C63" width="9" height="4.5"/>
<line fill="none" stroke="#000000" stroke-width="0.72" stroke-linecap="round" stroke-linejoin="round" stroke-miterlimit="10" x1="249.83" y1="70.47" x2="281.33" y2="70.47"/>
<line fill="none" stroke="#000000" stroke-width="0.72" stroke-linecap="round" stroke-linejoin="round" stroke-miterlimit="10" x1="294.83" y1="68.22" x2="303.83" y2="68.22"/>
<polyline fill="none" stroke="#000000" stroke-width="0.72" stroke-linecap="round" stroke-linejoin="round" stroke-miterlimit="10" points="  300.59,71.46 303.83,68.22 300.59,64.98 "/>
<line fill="none" stroke="#000000" stroke-width="0.72" stroke-linecap="round" stroke-linejoin="round" stroke-miterlimit="10" x1="303.83" y1="43.47" x2="231.83" y2="43.47"/>
<polyline fill="none" stroke="#000000" stroke-width="0.72" stroke-linecap="round" stroke-linejoin="round" stroke-miterlimit="10" points="  235.07,40.23 231.83,43.47 235.07,46.71 "/>
<polyline fill="none" stroke="#000000" stroke-width="0.72" stroke-linecap="round" stroke-linejoin="round" stroke-miterlimit="10" points="  348.83,38.97 348.83,74.97 375.83,74.97 375.83,38.97 "/>
<path fill-rule="evenodd" clip-rule="evenodd" fill="#968C63" d="M393.83,70.47c0-2.485-2.01-4.5-4.5-4.5c-2.48,0-4.5,2.015-4.5,4.5  c0,2.485,2.02,4.5,4.5,4.5C391.82,74.97,393.83,72.955,393.83,70.47z"/>
<rect x="389.33" y="65.97" fill-rule="evenodd" clip-rule="evenodd" fill="#968C63" width="9" height="4.5"/>
<line fill="none" stroke="#000000" stroke-width="0.72" stroke-linecap="round" stroke-linejoin="round" stroke-miterlimit="10" x1="375.83" y1="70.47" x2="384.83" y2="70.47"/>
<line fill="none" stroke="#000000" stroke-width="0.72" stroke-linecap="round" stroke-linejoin="round" stroke-miterlimit="10" x1="398.33" y1="68.22" x2="407.33" y2="68.22"/>
<polyline fill="none" stroke="#000000" stroke-width="0.72" stroke-linecap="round" stroke-linejoin="round" stroke-miterlimit="10" points="  404.09,71.46 407.33,68.22 404.09,64.98 "/>
<line fill="none" stroke="#000000" stroke-width="0.72" stroke-linecap="round" stroke-linejoin="round" stroke-miterlimit="10" x1="330.83" y1="68.22" x2="348.83" y2="68.22"/>
<polyline fill="none" stroke="#000000" stroke-width="0.72" stroke-linecap="round" stroke-linejoin="round" stroke-miterlimit="10" points="  345.59,71.46 348.83,68.22 345.59,64.98 "/>
<text transform="matrix(1 0 0 1 68.501 82.1699)" font-family="'Times-Roman'" font-size="5.9999">F</text>
<text transform="matrix(1 0 0 1 71.8379 82.1699)" font-family="'Times-Roman'" font-size="5.9999">e</text>
<text transform="matrix(1 0 0 1 74.501 82.1699)" font-family="'Times-Roman'" font-size="5.9999">e</text>
<text transform="matrix(1 0 0 1 77.1641 82.1699)" font-family="'Times-Roman'" font-size="5.9999">d</text>
<text transform="matrix(1 0 0 1 65.918 89.3701)" font-family="'Times-Roman'" font-size="5.9999">T</text>
<text transform="matrix(1 0 0 1 69.583 89.3701)" font-family="'Times-Roman'" font-size="5.9999">a</text>
<text transform="matrix(1 0 0 1 72.2461 89.3701)" font-family="'Times-Roman'" font-size="5.9999">n</text>
<text transform="matrix(1 0 0 1 75.2461 89.3701)" font-family="'Times-Roman'" font-size="5.9999">k</text>
<text transform="matrix(1 0 0 1 79.7461 89.3701)" font-family="'Times-Roman'" font-size="5.9999">1</text>
<text transform="matrix(1 0 0 1 140.5 79.9199)" font-family="'Times-Roman'" font-size="5.9999">F</text>
<text transform="matrix(1 0 0 1 143.8369 79.9199)" font-family="'Times-Roman'" font-size="5.9999">e</text>
<text transform="matrix(1 0 0 1 146.5 79.9199)" font-family="'Times-Roman'" font-size="5.9999">e</text>
<text transform="matrix(1 0 0 1 149.1631 79.9199)" font-family="'Times-Roman'" font-size="5.9999">d</text>
<text transform="matrix(1 0 0 1 137.9199 87.1201)" font-family="'Times-Roman'" font-size="5.9999">T</text>
<text transform="matrix(1 0 0 1 141.585 87.1201)" font-family="'Times-Roman'" font-size="5.9999">a</text>
<text transform="matrix(1 0 0 1 144.248 87.1201)" font-family="'Times-Roman'" font-size="5.9999">n</text>
<text transform="matrix(1 0 0 1 147.248 87.1201)" font-family="'Times-Roman'" font-size="5.9999">k</text>
<text transform="matrix(1 0 0 1 151.75 87.1201)" font-family="'Times-Roman'" font-size="5.9999">2</text>
<text transform="matrix(1 0 0 1 307.6699 80.8203)" font-family="'Times-Roman'" font-size="5.9999">R</text>
<text transform="matrix(1 0 0 1 311.6719 80.8203)" font-family="'Times-Roman'" font-size="5.9999">e</text>
<text transform="matrix(1 0 0 1 314.335 80.8203)" font-family="'Times-Roman'" font-size="5.9999">v</text>
<text transform="matrix(1 0 0 1 317.335 80.8203)" font-family="'Times-Roman'" font-size="5.9999">e</text>
<text transform="matrix(1 0 0 1 319.998 80.8203)" font-family="'Times-Roman'" font-size="5.9999">r</text>
<text transform="matrix(1 0 0 1 321.9961 80.8203)" font-family="'Times-Roman'" font-size="5.9999">s</text>
<text transform="matrix(1 0 0 1 324.3311 80.8203)" font-family="'Times-Roman'" font-size="5.9999">e</text>
<text transform="matrix(1 0 0 1 307 88.0195)" font-family="'Times-Roman'" font-size="5.9999">O</text>
<text transform="matrix(1 0 0 1 311.333 88.0195)" font-family="'Times-Roman'" font-size="5.9999">s</text>
<text transform="matrix(1 0 0 1 313.668 88.0195)" font-family="'Times-Roman'" font-size="5.9999">m</text>
<text transform="matrix(1 0 0 1 318.335 88.0195)" font-family="'Times-Roman'" font-size="5.9999">o</text>
<text transform="matrix(1 0 0 1 321.335 88.0195)" font-family="'Times-Roman'" font-size="5.9999">s</text>
<text transform="matrix(1 0 0 1 323.6699 88.0195)" font-family="'Times-Roman'" font-size="5.9999">i</text>
<text transform="matrix(1 0 0 1 325.3369 88.0195)" font-family="'Times-Roman'" font-size="5.9999">s</text>
<text transform="matrix(1 0 0 1 308 95.2197)" font-family="'Times-Roman'" font-size="5.9999">M</text>
<text transform="matrix(1 0 0 1 313.335 95.2197)" font-family="'Times-Roman'" font-size="5.9999">o</text>
<text transform="matrix(1 0 0 1 316.335 95.2197)" font-family="'Times-Roman'" font-size="5.9999">d</text>
<text transform="matrix(1 0 0 1 319.335 95.2197)" font-family="'Times-Roman'" font-size="5.9999">u</text>
<text transform="matrix(1 0 0 1 322.335 95.2197)" font-family="'Times-Roman'" font-size="5.9999">l</text>
<text transform="matrix(1 0 0 1 324.002 95.2197)" font-family="'Times-Roman'" font-size="5.9999">e</text>
<text transform="matrix(1 0 0 1 208.1699 81.9453)" font-family="'Times-Roman'" font-size="5.9999">F</text>
<text transform="matrix(1 0 0 1 211.5068 81.9453)" font-family="'Times-Roman'" font-size="5.9999">o</text>
<text transform="matrix(1 0 0 1 214.5068 81.9453)" font-family="'Times-Roman'" font-size="5.9999">r</text>
<text transform="matrix(1 0 0 1 216.5049 81.9453)" font-family="'Times-Roman'" font-size="5.9999">w</text>
<text transform="matrix(1 0 0 1 220.8379 81.9453)" font-family="'Times-Roman'" font-size="5.9999">a</text>
<text transform="matrix(1 0 0 1 223.501 81.9453)" font-family="'Times-Roman'" font-size="5.9999">r</text>
<text transform="matrix(1 0 0 1 225.499 81.9453)" font-family="'Times-Roman'" font-size="5.9999">d</text>
<text transform="matrix(1 0 0 1 208 89.1445)" font-family="'Times-Roman'" font-size="5.9999">O</text>
<text transform="matrix(1 0 0 1 212.333 89.1445)" font-family="'Times-Roman'" font-size="5.9999">s</text>
<text transform="matrix(1 0 0 1 214.668 89.1445)" font-family="'Times-Roman'" font-size="5.9999">m</text>
<text transform="matrix(1 0 0 1 219.335 89.1445)" font-family="'Times-Roman'" font-size="5.9999">o</text>
<text transform="matrix(1 0 0 1 222.335 89.1445)" font-family="'Times-Roman'" font-size="5.9999">s</text>
<text transform="matrix(1 0 0 1 224.6699 89.1445)" font-family="'Times-Roman'" font-size="5.9999">i</text>
<text transform="matrix(1 0 0 1 226.3369 89.1445)" font-family="'Times-Roman'" font-size="5.9999">s</text>
<text transform="matrix(1 0 0 1 209 96.3447)" font-family="'Times-Roman'" font-size="5.9999">M</text>
<text transform="matrix(1 0 0 1 214.335 96.3447)" font-family="'Times-Roman'" font-size="5.9999">o</text>
<text transform="matrix(1 0 0 1 217.335 96.3447)" font-family="'Times-Roman'" font-size="5.9999">d</text>
<text transform="matrix(1 0 0 1 220.335 96.3447)" font-family="'Times-Roman'" font-size="5.9999">u</text>
<text transform="matrix(1 0 0 1 223.335 96.3447)" font-family="'Times-Roman'" font-size="5.9999">l</text>
<text transform="matrix(1 0 0 1 225.002 96.3447)" font-family="'Times-Roman'" font-size="5.9999">e</text>
<text transform="matrix(1 0 0 1 353 81.0449)" font-family="'Times-Roman'" font-size="5.9999">P</text>
<text transform="matrix(1 0 0 1 356.3369 81.0449)" font-family="'Times-Roman'" font-size="5.9999">r</text>
<text transform="matrix(1 0 0 1 358.335 81.0449)" font-family="'Times-Roman'" font-size="5.9999">o</text>
<text transform="matrix(1 0 0 1 361.335 81.0449)" font-family="'Times-Roman'" font-size="5.9999">d</text>
<text transform="matrix(1 0 0 1 364.335 81.0449)" font-family="'Times-Roman'" font-size="5.9999">u</text>
<text transform="matrix(1 0 0 1 367.335 81.0449)" font-family="'Times-Roman'" font-size="5.9999">c</text>
<text transform="matrix(1 0 0 1 369.998 81.0449)" font-family="'Times-Roman'" font-size="5.9999">t</text>
<text transform="matrix(1 0 0 1 356.1699 88.2451)" font-family="'Times-Roman'" font-size="5.9999">T</text>
<text transform="matrix(1 0 0 1 359.835 88.2451)" font-family="'Times-Roman'" font-size="5.9999">a</text>
<text transform="matrix(1 0 0 1 362.498 88.2451)" font-family="'Times-Roman'" font-size="5.9999">n</text>
<text transform="matrix(1 0 0 1 365.498 88.2451)" font-family="'Times-Roman'" font-size="5.9999">k</text>
<text transform="matrix(1 0 0 1 89.5488 81.2695)" font-family="'Times-Roman'" font-size="5.9999">P</text>
<text transform="matrix(1 0 0 1 92.8857 81.2695)" font-family="'Times-Roman'" font-size="5.9999">u</text>
<text transform="matrix(1 0 0 1 95.8857 81.2695)" font-family="'Times-Roman'" font-size="5.9999">m</text>
<text transform="matrix(1 0 0 1 100.5527 81.2695)" font-family="'Times-Roman'" font-size="5.9999">p</text>
<text transform="matrix(1 0 0 1 105.0498 81.2695)" font-family="'Times-Roman'" font-size="5.9999">2</text>
<text transform="matrix(1 0 0 1 284.7598 82.1699)" font-family="'Times-Roman'" font-size="5.9999">R</text>
<text transform="matrix(1 0 0 1 288.7617 82.1699)" font-family="'Times-Roman'" font-size="5.9999">O</text>
<text transform="matrix(1 0 0 1 281.9199 89.3701)" font-family="'Times-Roman'" font-size="5.9999">P</text>
<text transform="matrix(1 0 0 1 285.2568 89.3701)" font-family="'Times-Roman'" font-size="5.9999">u</text>
<text transform="matrix(1 0 0 1 288.2568 89.3701)" font-family="'Times-Roman'" font-size="5.9999">m</text>
<text transform="matrix(1 0 0 1 292.9238 89.3701)" font-family="'Times-Roman'" font-size="5.9999">p</text>
<text transform="matrix(1 0 0 1 382.3301 79.0195)" font-family="'Times-Roman'" font-size="5.9999">P</text>
<text transform="matrix(1 0 0 1 385.667 79.0195)" font-family="'Times-Roman'" font-size="5.9999">u</text>
<text transform="matrix(1 0 0 1 388.667 79.0195)" font-family="'Times-Roman'" font-size="5.9999">m</text>
<text transform="matrix(1 0 0 1 393.334 79.0195)" font-family="'Times-Roman'" font-size="5.9999">p</text>
<text transform="matrix(1 0 0 1 397.8301 79.0195)" font-family="'Times-Roman'" font-size="5.9999">8</text>
<line fill="none" stroke="#000000" stroke-width="0.72" stroke-linecap="round" stroke-linejoin="round" stroke-miterlimit="10" x1="31.582" y1="47.97" x2="60.832" y2="47.97"/>
<polyline fill="none" stroke="#000000" stroke-width="0.72" stroke-linecap="round" stroke-linejoin="round" stroke-miterlimit="10" points="  57.592,51.21 60.832,47.97 57.592,44.73 "/>
<text transform="matrix(1 0 0 1 37.5869 55.1699)" font-family="'Times-Roman'" font-size="5.9999">W</text>
<text transform="matrix(1 0 0 1 43.25 55.1699)" font-family="'Times-Roman'" font-size="5.9999">a</text>
<text transform="matrix(1 0 0 1 45.9131 55.1699)" font-family="'Times-Roman'" font-size="5.9999">s</text>
<text transform="matrix(1 0 0 1 48.248 55.1699)" font-family="'Times-Roman'" font-size="5.9999">t</text>
<text transform="matrix(1 0 0 1 49.9146 55.1699)" font-family="'Times-Roman'" font-size="5.9999">e</text>
<text transform="matrix(1 0 0 1 37.7549 62.3701)" font-family="'Times-Roman'" font-size="5.9999">W</text>
<text transform="matrix(1 0 0 1 43.418 62.3701)" font-family="'Times-Roman'" font-size="5.9999">a</text>
<text transform="matrix(1 0 0 1 46.0811 62.3701)" font-family="'Times-Roman'" font-size="5.9999">t</text>
<text transform="matrix(1 0 0 1 47.748 62.3701)" font-family="'Times-Roman'" font-size="5.9999">e</text>
<text transform="matrix(1 0 0 1 50.4106 62.3701)" font-family="'Times-Roman'" font-size="5.9999">r</text>
<text transform="matrix(1 0 0 1 112.8301 81.833)" font-family="'Times-Roman'" font-size="5.9999">F</text>
<text transform="matrix(1 0 0 1 116.167 81.833)" font-family="'Times-Roman'" font-size="5.9999">i</text>
<text transform="matrix(1 0 0 1 117.8335 81.833)" font-family="'Times-Roman'" font-size="5.9999">l</text>
<text transform="matrix(1 0 0 1 119.5005 81.833)" font-family="'Times-Roman'" font-size="5.9999">t</text>
<text transform="matrix(1 0 0 1 121.1675 81.833)" font-family="'Times-Roman'" font-size="5.9999">e</text>
<text transform="matrix(1 0 0 1 123.8306 81.833)" font-family="'Times-Roman'" font-size="5.9999">r</text>
<text transform="matrix(1 0 0 1 127.3301 81.833)" font-family="'Times-Roman'" font-size="5.9999">1</text>
<line fill="none" stroke="#000000" stroke-width="0.72" stroke-linecap="round" stroke-linejoin="round" stroke-miterlimit="10" x1="272.33" y1="113.22" x2="272.33" y2="70.47"/>
<polyline fill="none" stroke="#000000" stroke-width="0.72" stroke-linecap="round" stroke-linejoin="round" stroke-miterlimit="10" points="  275.57,73.71 272.33,70.47 269.09,73.71 "/>
<text transform="matrix(1 0 0 1 253.3398 119.5195)" font-family="'Times-Roman'" font-size="5.9999">N</text>
<text transform="matrix(1 0 0 1 257.6729 119.5195)" font-family="'Times-Roman'" font-size="5.9999">a</text>
<text transform="matrix(1 0 0 1 260.3359 119.5195)" font-family="'Times-Roman'" font-size="5.9999">C</text>
<text transform="matrix(1 0 0 1 264.3379 119.5195)" font-family="'Times-Roman'" font-size="5.9999">l</text>
<path fill-rule="evenodd" clip-rule="evenodd" fill="#968C63" d="M173.33,70.47c0-2.485-2.01-4.5-4.5-4.5c-2.48,0-4.5,2.015-4.5,4.5  c0,2.485,2.02,4.5,4.5,4.5C171.32,74.97,173.33,72.955,173.33,70.47z"/>
<rect x="168.83" y="65.97" fill-rule="evenodd" clip-rule="evenodd" fill="#968C63" width="9" height="4.5"/>
<line fill="none" stroke="#000000" stroke-width="0.72" stroke-linecap="round" stroke-linejoin="round" stroke-miterlimit="10" x1="159.83" y1="70.47" x2="164.33" y2="70.47"/>
<line fill="none" stroke="#000000" stroke-width="0.72" stroke-linecap="round" stroke-linejoin="round" stroke-miterlimit="10" x1="177.83" y1="68.22" x2="189.08" y2="68.22"/>
<rect x="189.08" y="62.595" fill-rule="evenodd" clip-rule="evenodd" fill="#56776B" width="4.5" height="11.25"/>
<line fill="none" stroke="#000000" stroke-width="0.72" stroke-linecap="round" stroke-linejoin="round" stroke-miterlimit="10" x1="193.58" y1="68.22" x2="204.83" y2="68.22"/>
<polyline fill="none" stroke="#000000" stroke-width="0.72" stroke-linecap="round" stroke-linejoin="round" stroke-miterlimit="10" points="  201.59,71.46 204.83,68.22 201.59,64.98 "/>
<text transform="matrix(1 0 0 1 161.5498 81.2695)" font-family="'Times-Roman'" font-size="5.9999">P</text>
<text transform="matrix(1 0 0 1 164.8867 81.2695)" font-family="'Times-Roman'" font-size="5.9999">u</text>
<text transform="matrix(1 0 0 1 167.8867 81.2695)" font-family="'Times-Roman'" font-size="5.9999">m</text>
<text transform="matrix(1 0 0 1 172.5537 81.2695)" font-family="'Times-Roman'" font-size="5.9999">p</text>
<text transform="matrix(1 0 0 1 177.0498 81.2695)" font-family="'Times-Roman'" font-size="5.9999">4</text>
<text transform="matrix(1 0 0 1 184.8301 81.833)" font-family="'Times-Roman'" font-size="5.9999">F</text>
<text transform="matrix(1 0 0 1 188.167 81.833)" font-family="'Times-Roman'" font-size="5.9999">i</text>
<text transform="matrix(1 0 0 1 189.8335 81.833)" font-family="'Times-Roman'" font-size="5.9999">l</text>
<text transform="matrix(1 0 0 1 191.5005 81.833)" font-family="'Times-Roman'" font-size="5.9999">t</text>
<text transform="matrix(1 0 0 1 193.1675 81.833)" font-family="'Times-Roman'" font-size="5.9999">e</text>
<text transform="matrix(1 0 0 1 195.8306 81.833)" font-family="'Times-Roman'" font-size="5.9999">r</text>
<text transform="matrix(1 0 0 1 199.3301 81.833)" font-family="'Times-Roman'" font-size="5.9999">2</text>
<line fill="none" stroke="#000000" stroke-width="0.72" stroke-linecap="round" stroke-linejoin="round" stroke-miterlimit="10" x1="213.83" y1="59.22" x2="225.08" y2="59.22"/>
<polyline fill="none" stroke="#000000" stroke-width="0.72" stroke-linecap="round" stroke-linejoin="round" stroke-miterlimit="10" points="  221.84,62.46 225.08,59.22 221.84,55.98 "/>
<line fill="none" stroke="#000000" stroke-width="0.72" stroke-linecap="round" stroke-linejoin="round" stroke-miterlimit="10" x1="312.83" y1="59.782" x2="324.08" y2="59.782"/>
<polyline fill="none" stroke="#000000" stroke-width="0.72" stroke-linecap="round" stroke-linejoin="round" stroke-miterlimit="10" points="  320.84,63.022 324.08,59.782 320.84,56.542 "/>
<polyline fill="none" stroke="#000000" stroke-width="0.72" stroke-linecap="round" stroke-linejoin="round" stroke-miterlimit="10" points="  6.832,65.97 6.832,101.97 33.832,101.97 33.832,65.97 "/>
<polyline fill="none" stroke="#000000" stroke-width="0.72" stroke-linecap="round" stroke-linejoin="round" stroke-miterlimit="10" points="  65.332,0.72 65.332,14.22 74.332,14.22 74.332,0.72 "/>
<polyline fill="none" stroke="#000000" stroke-width="0.72" stroke-linecap="round" stroke-linejoin="round" stroke-miterlimit="10" points="  240.83,61.47 240.83,74.97 249.83,74.97 249.83,61.47 "/>
<polyline fill="none" stroke="#000000" stroke-width="0.72" stroke-linecap="round" stroke-linejoin="round" stroke-miterlimit="10" points="  209.33,106.47 209.33,119.97 218.33,119.97 218.33,106.47 "/>
<circle fill-rule="evenodd" clip-rule="evenodd" fill="#968C63" cx="15.832" cy="97.47" r="4.5"/>
<rect x="15.832" y="92.97" fill-rule="evenodd" clip-rule="evenodd" fill="#968C63" width="9" height="4.5"/>
<polyline fill="none" stroke="#000000" stroke-width="0.72" stroke-linecap="round" stroke-linejoin="round" stroke-miterlimit="10" points="  24.832,95.22 31.582,95.22 31.582,47.97 "/>
<path fill-rule="evenodd" clip-rule="evenodd" fill="#968C63" d="M96.832,9.72c0-2.49-2.015-4.5-4.5-4.5s-4.5,2.01-4.5,4.5  c0,2.49,2.015,4.5,4.5,4.5S96.832,12.21,96.832,9.72z"/>
<rect x="92.332" y="5.22" fill-rule="evenodd" clip-rule="evenodd" fill="#968C63" width="9" height="4.5"/>
<line fill="none" stroke="#000000" stroke-width="0.72" stroke-linecap="round" stroke-linejoin="round" stroke-miterlimit="10" x1="74.332" y1="9.72" x2="87.832" y2="9.72"/>
<line fill="none" stroke="#000000" stroke-width="0.72" stroke-linecap="round" stroke-linejoin="round" stroke-miterlimit="10" x1="101.33" y1="7.47" x2="137.33" y2="7.47"/>
<line fill="none" stroke="#000000" stroke-width="0.72" stroke-linecap="round" stroke-linejoin="round" stroke-miterlimit="10" x1="137.33" y1="7.47" x2="137.33" y2="47.97"/>
<polyline fill="none" stroke="#000000" stroke-width="0.72" stroke-linecap="round" stroke-linejoin="round" stroke-miterlimit="10" points="  134.09,44.73 137.33,47.97 140.57,44.73 "/>
<polyline fill="none" stroke="#000000" stroke-width="0.72" stroke-linecap="round" stroke-linejoin="round" stroke-miterlimit="10" points="  218.33,0.72 218.33,14.22 209.33,14.22 209.33,0.72 "/>
<path fill-rule="evenodd" clip-rule="evenodd" fill="#968C63" d="M186.83,9.72c0-2.49,2.02-4.5,4.5-4.5c2.49,0,4.5,2.01,4.5,4.5  c0,2.49-2.01,4.5-4.5,4.5C188.85,14.22,186.83,12.21,186.83,9.72z"/>
<rect x="182.33" y="5.22" fill-rule="evenodd" clip-rule="evenodd" fill="#968C63" width="9" height="4.5"/>
<line fill="none" stroke="#000000" stroke-width="0.72" stroke-linecap="round" stroke-linejoin="round" stroke-miterlimit="10" x1="209.33" y1="9.72" x2="195.83" y2="9.72"/>
<line fill="none" stroke="#000000" stroke-width="0.72" stroke-linecap="round" stroke-linejoin="round" stroke-miterlimit="10" x1="182.33" y1="7.47" x2="146.33" y2="7.47"/>
<line fill="none" stroke="#000000" stroke-width="0.72" stroke-linecap="round" stroke-linejoin="round" stroke-miterlimit="10" x1="146.33" y1="7.47" x2="146.33" y2="47.97"/>
<polyline fill="none" stroke="#000000" stroke-width="0.72" stroke-linecap="round" stroke-linejoin="round" stroke-miterlimit="10" points="  149.57,44.73 146.33,47.97 143.09,44.73 "/>
<line fill="none" stroke="#000000" stroke-width="0.72" stroke-linecap="round" stroke-linejoin="round" stroke-miterlimit="10" x1="231.83" y1="70.47" x2="240.83" y2="70.47"/>
<path fill-rule="evenodd" clip-rule="evenodd" fill="#968C63" d="M240.83,115.47c0-2.484-2.01-4.5-4.5-4.5  c-2.48,0-4.5,2.016-4.5,4.5c0,2.485,2.02,4.5,4.5,4.5C238.82,119.97,240.83,117.955,240.83,115.47z"/>
<rect x="236.33" y="110.97" fill-rule="evenodd" clip-rule="evenodd" fill="#968C63" width="9" height="4.5"/>
<line fill="none" stroke="#000000" stroke-width="0.72" stroke-linecap="round" stroke-linejoin="round" stroke-miterlimit="10" x1="218.33" y1="115.47" x2="231.83" y2="115.47"/>
<line fill="none" stroke="#000000" stroke-width="0.72" stroke-linecap="round" stroke-linejoin="round" stroke-miterlimit="10" x1="245.33" y1="113.22" x2="272.33" y2="113.22"/>
<line fill="none" stroke="#000000" stroke-width="0.72" stroke-linecap="round" stroke-linejoin="round" stroke-miterlimit="10" x1="204.83" y1="38.97" x2="231.83" y2="38.97"/>
<line fill="none" stroke="#000000" stroke-width="0.72" stroke-linecap="round" stroke-linejoin="round" stroke-miterlimit="10" x1="303.83" y1="38.97" x2="330.83" y2="38.97"/>
<polyline fill="none" stroke="#000000" stroke-width="0.72" stroke-linecap="round" stroke-linejoin="round" stroke-miterlimit="10" points="  209.33,38.97 209.33,34.47 155.33,34.47 "/>
<line fill="none" stroke="#000000" stroke-width="0.72" stroke-linecap="round" stroke-linejoin="round" stroke-miterlimit="10" x1="155.33" y1="34.47" x2="155.33" y2="47.97"/>
<polyline fill="none" stroke="#000000" stroke-width="0.72" stroke-linecap="round" stroke-linejoin="round" stroke-miterlimit="10" points="  152.09,44.73 155.33,47.97 158.57,44.73 "/>
<text transform="matrix(1 0 0 1 4.6777 109.1699)" font-family="'Times-Roman'" font-size="5.9999">W</text>
<text transform="matrix(1 0 0 1 10.3403 109.1699)" font-family="'Times-Roman'" font-size="5.9999">a</text>
<text transform="matrix(1 0 0 1 13.0034 109.1699)" font-family="'Times-Roman'" font-size="5.9999">s</text>
<text transform="matrix(1 0 0 1 15.3384 109.1699)" font-family="'Times-Roman'" font-size="5.9999">t</text>
<text transform="matrix(1 0 0 1 17.0054 109.1699)" font-family="'Times-Roman'" font-size="5.9999">e</text>
<text transform="matrix(1 0 0 1 21.1685 109.1699)" font-family="'Times-Roman'" font-size="5.9999">W</text>
<text transform="matrix(1 0 0 1 26.8311 109.1699)" font-family="'Times-Roman'" font-size="5.9999">a</text>
<text transform="matrix(1 0 0 1 29.4941 109.1699)" font-family="'Times-Roman'" font-size="5.9999">t</text>
<text transform="matrix(1 0 0 1 31.1611 109.1699)" font-family="'Times-Roman'" font-size="5.9999">e</text>
<text transform="matrix(1 0 0 1 33.8242 109.1699)" font-family="'Times-Roman'" font-size="5.9999">r</text>
<text transform="matrix(1 0 0 1 14.0859 116.3701)" font-family="'Times-Roman'" font-size="5.9999">T</text>
<text transform="matrix(1 0 0 1 17.751 116.3701)" font-family="'Times-Roman'" font-size="5.9999">a</text>
<text transform="matrix(1 0 0 1 20.4141 116.3701)" font-family="'Times-Roman'" font-size="5.9999">n</text>
<text transform="matrix(1 0 0 1 23.4141 116.3701)" font-family="'Times-Roman'" font-size="5.9999">k</text>
<text transform="matrix(1 0 0 1 11.0801 90.2695)" font-family="'Times-Roman'" font-size="5.9999">P</text>
<text transform="matrix(1 0 0 1 14.417 90.2695)" font-family="'Times-Roman'" font-size="5.9999">u</text>
<text transform="matrix(1 0 0 1 17.417 90.2695)" font-family="'Times-Roman'" font-size="5.9999">m</text>
<text transform="matrix(1 0 0 1 22.084 90.2695)" font-family="'Times-Roman'" font-size="5.9999">p</text>
<text transform="matrix(1 0 0 1 26.584 90.2695)" font-family="'Times-Roman'" font-size="5.9999">1</text>
<text transform="matrix(1 0 0 1 85.3301 18.27)" font-family="'Times-Roman'" font-size="5.9999">P</text>
<text transform="matrix(1 0 0 1 88.667 18.27)" font-family="'Times-Roman'" font-size="5.9999">u</text>
<text transform="matrix(1 0 0 1 91.667 18.27)" font-family="'Times-Roman'" font-size="5.9999">m</text>
<text transform="matrix(1 0 0 1 96.334 18.27)" font-family="'Times-Roman'" font-size="5.9999">p</text>
<text transform="matrix(1 0 0 1 100.8301 18.27)" font-family="'Times-Roman'" font-size="5.9999">6</text>
<text transform="matrix(1 0 0 1 178.9902 18.27)" font-family="'Times-Roman'" font-size="5.9999">P</text>
<text transform="matrix(1 0 0 1 182.3267 18.27)" font-family="'Times-Roman'" font-size="5.9999">u</text>
<text transform="matrix(1 0 0 1 185.3271 18.27)" font-family="'Times-Roman'" font-size="5.9999">m</text>
<text transform="matrix(1 0 0 1 189.9941 18.27)" font-family="'Times-Roman'" font-size="5.9999">p</text>
<text transform="matrix(1 0 0 1 194.4902 18.27)" font-family="'Times-Roman'" font-size="5.9999">5</text>
<text transform="matrix(1 0 0 1 229.3301 124.0195)" font-family="'Times-Roman'" font-size="5.9999">P</text>
<text transform="matrix(1 0 0 1 232.667 124.0195)" font-family="'Times-Roman'" font-size="5.9999">u</text>
<text transform="matrix(1 0 0 1 235.667 124.0195)" font-family="'Times-Roman'" font-size="5.9999">m</text>
<text transform="matrix(1 0 0 1 240.334 124.0195)" font-family="'Times-Roman'" font-size="5.9999">p</text>
<text transform="matrix(1 0 0 1 244.8301 124.0195)" font-family="'Times-Roman'" font-size="5.9999">7</text>
<text transform="matrix(1 0 0 1 207.5 127.1699)" font-family="'Times-Roman'" font-size="5.9999">N</text>
<text transform="matrix(1 0 0 1 211.833 127.1699)" font-family="'Times-Roman'" font-size="5.9999">a</text>
<text transform="matrix(1 0 0 1 214.4961 127.1699)" font-family="'Times-Roman'" font-size="5.9999">C</text>
<text transform="matrix(1 0 0 1 218.498 127.1699)" font-family="'Times-Roman'" font-size="5.9999">l</text>
<text transform="matrix(1 0 0 1 198.4199 134.3701)" font-family="'Times-Roman'" font-size="5.9999">S</text>
<text transform="matrix(1 0 0 1 201.7568 134.3701)" font-family="'Times-Roman'" font-size="5.9999">u</text>
<text transform="matrix(1 0 0 1 204.7568 134.3701)" font-family="'Times-Roman'" font-size="5.9999">p</text>
<text transform="matrix(1 0 0 1 207.7568 134.3701)" font-family="'Times-Roman'" font-size="5.9999">p</text>
<text transform="matrix(1 0 0 1 210.7568 134.3701)" font-family="'Times-Roman'" font-size="5.9999">l</text>
<text transform="matrix(1 0 0 1 212.4238 134.3701)" font-family="'Times-Roman'" font-size="5.9999">y</text>
<text transform="matrix(1 0 0 1 216.9238 134.3701)" font-family="'Times-Roman'" font-size="5.9999">T</text>
<text transform="matrix(1 0 0 1 220.5889 134.3701)" font-family="'Times-Roman'" font-size="5.9999">a</text>
<text transform="matrix(1 0 0 1 223.252 134.3701)" font-family="'Times-Roman'" font-size="5.9999">n</text>
<text transform="matrix(1 0 0 1 226.252 134.3701)" font-family="'Times-Roman'" font-size="5.9999">k</text>
<text transform="matrix(1 0 0 1 234.7402 81.9453)" font-family="'Times-Roman'" font-size="5.9999">O</text>
<text transform="matrix(1 0 0 1 239.0732 81.9453)" font-family="'Times-Roman'" font-size="5.9999">s</text>
<text transform="matrix(1 0 0 1 241.4082 81.9453)" font-family="'Times-Roman'" font-size="5.9999">m</text>
<text transform="matrix(1 0 0 1 246.0752 81.9453)" font-family="'Times-Roman'" font-size="5.9999">o</text>
<text transform="matrix(1 0 0 1 249.0752 81.9453)" font-family="'Times-Roman'" font-size="5.9999">t</text>
<text transform="matrix(1 0 0 1 250.7422 81.9453)" font-family="'Times-Roman'" font-size="5.9999">i</text>
<text transform="matrix(1 0 0 1 252.4092 81.9453)" font-family="'Times-Roman'" font-size="5.9999">c</text>
<text transform="matrix(1 0 0 1 237.5801 89.1445)" font-family="'Times-Roman'" font-size="5.9999">A</text>
<text transform="matrix(1 0 0 1 241.9131 89.1445)" font-family="'Times-Roman'" font-size="5.9999">g</text>
<text transform="matrix(1 0 0 1 244.9131 89.1445)" font-family="'Times-Roman'" font-size="5.9999">e</text>
<text transform="matrix(1 0 0 1 247.5762 89.1445)" font-family="'Times-Roman'" font-size="5.9999">n</text>
<text transform="matrix(1 0 0 1 250.5762 89.1445)" font-family="'Times-Roman'" font-size="5.9999">t</text>
<text transform="matrix(1 0 0 1 238.75 96.3447)" font-family="'Times-Roman'" font-size="5.9999">T</text>
<text transform="matrix(1 0 0 1 242.415 96.3447)" font-family="'Times-Roman'" font-size="5.9999">a</text>
<text transform="matrix(1 0 0 1 245.0781 96.3447)" font-family="'Times-Roman'" font-size="5.9999">n</text>
<text transform="matrix(1 0 0 1 248.0781 96.3447)" font-family="'Times-Roman'" font-size="5.9999">k</text>
<text transform="matrix(1 0 0 1 57.3779 21.4199)" font-family="'Times-Roman'" font-size="5.9999">A</text>
<text transform="matrix(1 0 0 1 61.7109 21.4199)" font-family="'Times-Roman'" font-size="5.9999">n</text>
<text transform="matrix(1 0 0 1 64.7109 21.4199)" font-family="'Times-Roman'" font-size="5.9999">t</text>
<text transform="matrix(1 0 0 1 66.3779 21.4199)" font-family="'Times-Roman'" font-size="5.9999">i</text>
<text transform="matrix(1 0 0 1 68.0449 21.4199)" font-family="'Times-Roman'" font-size="5.9999">s</text>
<text transform="matrix(1 0 0 1 70.3799 21.4199)" font-family="'Times-Roman'" font-size="5.9999">c</text>
<text transform="matrix(1 0 0 1 73.043 21.4199)" font-family="'Times-Roman'" font-size="5.9999">a</text>
<text transform="matrix(1 0 0 1 75.7061 21.4199)" font-family="'Times-Roman'" font-size="5.9999">l</text>
<text transform="matrix(1 0 0 1 77.3726 21.4199)" font-family="'Times-Roman'" font-size="5.9999">e</text>
<text transform="matrix(1 0 0 1 53.291 28.6201)" font-family="'Times-Roman'" font-size="5.9999">S</text>
<text transform="matrix(1 0 0 1 56.6279 28.6201)" font-family="'Times-Roman'" font-size="5.9999">u</text>
<text transform="matrix(1 0 0 1 59.6279 28.6201)" font-family="'Times-Roman'" font-size="5.9999">p</text>
<text transform="matrix(1 0 0 1 62.6279 28.6201)" font-family="'Times-Roman'" font-size="5.9999">p</text>
<text transform="matrix(1 0 0 1 65.6279 28.6201)" font-family="'Times-Roman'" font-size="5.9999">l</text>
<text transform="matrix(1 0 0 1 67.2949 28.6201)" font-family="'Times-Roman'" font-size="5.9999">y</text>
<text transform="matrix(1 0 0 1 71.7949 28.6201)" font-family="'Times-Roman'" font-size="5.9999">T</text>
<text transform="matrix(1 0 0 1 75.46 28.6201)" font-family="'Times-Roman'" font-size="5.9999">a</text>
<text transform="matrix(1 0 0 1 78.123 28.6201)" font-family="'Times-Roman'" font-size="5.9999">n</text>
<text transform="matrix(1 0 0 1 81.123 28.6201)" font-family="'Times-Roman'" font-size="5.9999">k</text>
<text transform="matrix(1 0 0 1 203.6602 21.4199)" font-family="'Times-Roman'" font-size="5.9999">p</text>
<text transform="matrix(1 0 0 1 206.6602 21.4199)" font-family="'Times-Roman'" font-size="5.9999">H</text>
<text transform="matrix(1 0 0 1 212.4932 21.4199)" font-family="'Times-Roman'" font-size="5.9999">A</text>
<text transform="matrix(1 0 0 1 216.8262 21.4199)" font-family="'Times-Roman'" font-size="5.9999">d</text>
<text transform="matrix(1 0 0 1 219.8262 21.4199)" font-family="'Times-Roman'" font-size="5.9999">j</text>
<text transform="matrix(1 0 0 1 221.4932 21.4199)" font-family="'Times-Roman'" font-size="5.9999">u</text>
<text transform="matrix(1 0 0 1 224.4932 21.4199)" font-family="'Times-Roman'" font-size="5.9999">s</text>
<text transform="matrix(1 0 0 1 226.8281 21.4199)" font-family="'Times-Roman'" font-size="5.9999">t</text>
<text transform="matrix(1 0 0 1 209.9199 28.6201)" font-family="'Times-Roman'" font-size="5.9999">T</text>
<text transform="matrix(1 0 0 1 213.585 28.6201)" font-family="'Times-Roman'" font-size="5.9999">a</text>
<text transform="matrix(1 0 0 1 216.248 28.6201)" font-family="'Times-Roman'" font-size="5.9999">n</text>
<text transform="matrix(1 0 0 1 219.248 28.6201)" font-family="'Times-Roman'" font-size="5.9999">k</text>
</svg>